<svg xmlns="http://www.w3.org/2000/svg" style="display:none">
  <!-- Brand icon sprites - referenced via <use> -->
  <symbol id="icon-chatgpt" viewBox="0 0 24 24"><path d="M22.282 9.821a5.985 5.985 0 00-.516-4.91 6.046 6.046 0 00-6.51-2.9A6.065 6.065 0 0011.19.21a6.046 6.046 0 00-5.764 4.21 5.985 5.985 0 00-3.996 2.9 6.046 6.046 0 00.749 7.09 5.985 5.985 0 00.516 4.911 6.046 6.046 0 006.51 2.9A6.065 6.065 0 0012.81 23.79a6.046 6.046 0 005.764-4.21 5.985 5.985 0 003.996-2.9 6.046 6.046 0 00-.749-7.09" fill="currentColor"/></symbol>
  <symbol id="icon-claude" viewBox="0 0 24 24"><circle cx="12" cy="12" r="10" fill="none" stroke="currentColor" stroke-width="2"/><path d="M8 12l3 3 5-6" stroke="currentColor" stroke-width="2" fill="none" stroke-linecap="round" stroke-linejoin="round"/></symbol>
  <symbol id="icon-coinbase" viewBox="0 0 24 24"><circle cx="12" cy="12" r="11" fill="currentColor"/><path d="M14.5 10.5a3.5 3.5 0 10 0 3h-3" stroke="#0B0F19" stroke-width="2" fill="none" stroke-linecap="round"/></symbol>
  <symbol id="icon-bitcoin" viewBox="0 0 24 24"><circle cx="12" cy="12" r="11" fill="currentColor"/><path d="M9.5 7.5h3.5c1.5 0 2.5 1 2.5 2.25S14.5 12 13 12h-3.5m0 0h4c1.5 0 2.5 1 2.5 2.25s-1 2.25-2.5 2.25H9.5M12 6v1.5m0 9V18" stroke="#0B0F19" stroke-width="1.5" fill="none" stroke-linecap="round"/></symbol>
</svg>
